<?xml version="1.0" standalone="no"?>
<!DOCTYPE svg PUBLIC "-//W3C//DTD SVG 20010904//EN"
 "http://www.w3.org/TR/2001/REC-SVG-20010904/DTD/svg10.dtd">
<svg version="1.0" xmlns="http://www.w3.org/2000/svg"
 width="238.000000pt" height="129.000000pt" viewBox="0 0 238.000000 129.000000"
 preserveAspectRatio="xMidYMid meet">
<metadata>
Created by potrace 1.10, written by Peter Selinger 2001-2011
</metadata>
<g transform="translate(0.000000,129.000000) scale(0.100000,-0.100000)"
fill="#f0f0f0" stroke="none">
<path d="M1020 1268 c0 -15 10 -18 70 -18 60 0 70 3 70 18 0 15 -10 17 -70 17
-60 0 -70 -2 -70 -17z"/>
<path d="M1022 1019 c3 -18 10 -21 71 -22 63 -2 67 -1 67 21 0 21 -4 22 -71
22 -66 0 -70 -1 -67 -21z"/>
<path d="M32 930 c-46 -43 -24 -103 52 -140 36 -18 43 -37 22 -58 -13 -13 -23
-14 -55 -6 -36 10 -40 9 -45 -10 -7 -27 9 -36 70 -36 58 0 94 27 94 72 0 42
-10 58 -49 78 -52 26 -67 46 -51 66 10 11 23 14 50 9 32 -5 38 -3 43 14 6 24
-9 31 -67 31 -29 0 -49 -7 -64 -20z"/>
<path d="M278 938 c-12 -10 -78 -225 -78 -254 0 -2 14 -4 30 -4 23 0 30 5 30
19 0 41 11 51 56 51 41 0 43 -1 50 -35 5 -30 10 -35 35 -35 34 0 35 -13 -12
154 -15 54 -33 103 -41 107 -19 13 -52 11 -70 -3z m51 -70 c5 -18 11 -43 15
-55 7 -21 4 -23 -29 -23 -28 0 -36 4 -32 14 3 8 9 32 13 53 11 65 20 68 33 11z"/>
<path d="M470 814 l0 -135 28 3 27 3 3 133 3 132 -31 0 -30 0 0 -136z"/>
<path d="M580 815 l0 -135 31 0 32 0 -5 85 c-3 47 -5 85 -3 85 2 0 15 -24 30
-52 52 -100 65 -118 91 -118 l24 0 0 135 0 135 -31 0 -31 0 6 -87 7 -88 -48
87 c-42 77 -51 88 -75 88 l-28 0 0 -135z"/>
<path d="M820 925 c0 -21 5 -25 30 -25 l30 0 0 -110 0 -110 28 0 27 0 -3 110
-4 110 36 0 c32 0 36 3 36 25 0 25 -1 25 -90 25 -89 0 -90 0 -90 -25z"/>
<path d="M1290 846 c0 -116 -8 -132 -58 -121 -22 4 -31 2 -36 -10 -10 -27 2
-35 54 -35 41 0 52 4 69 26 18 23 21 41 21 135 l0 109 -25 0 -25 0 0 -104z"/>
<path d="M1422 940 c-32 -14 -44 -54 -40 -142 4 -97 15 -110 98 -116 59 -4 60
-4 60 22 0 25 -3 26 -50 26 l-50 0 0 35 0 36 45 -7 c43 -5 45 -5 45 20 0 24
-3 26 -46 26 -44 0 -45 1 -42 28 3 25 7 27 51 30 42 3 47 5 47 28 0 22 -4 24
-47 23 -27 0 -58 -4 -71 -9z"/>
<path d="M1649 933 c-8 -9 -28 -69 -45 -135 l-31 -118 28 0 c24 0 29 5 35 35
6 34 7 35 55 35 42 0 49 -3 49 -19 0 -36 12 -51 41 -51 l28 0 -13 38 c-7 20
-21 71 -31 112 -9 41 -24 85 -31 98 -17 27 -65 30 -85 5z m60 -85 c6 -26 11
-49 11 -52 0 -3 -15 -6 -34 -6 l-34 0 16 61 c16 67 24 66 41 -3z"/>
<path d="M1845 815 l0 -135 29 0 29 0 -5 87 c-3 53 -1 81 4 73 5 -8 27 -48 49
-87 33 -60 44 -73 64 -73 l25 0 0 135 0 135 -27 0 -28 0 3 -87 3 -88 -48 88
c-40 74 -52 87 -73 87 l-25 0 0 -135z"/>
<path d="M1020 766 c0 -22 3 -23 70 -23 67 0 70 1 70 23 0 23 -3 24 -70 24
-67 0 -70 -1 -70 -24z"/>
<path d="M413 653 c-44 -9 -63 -49 -63 -129 0 -40 5 -84 11 -98 15 -32 60 -50
110 -43 48 6 50 7 43 33 -4 16 -12 19 -46 15 -54 -5 -68 14 -68 89 0 76 15 95
68 88 35 -5 42 -3 48 14 3 11 4 21 2 23 -7 6 -84 12 -105 8z"/>
<path d="M631 643 c-16 -13 -30 -51 -51 -133 -16 -63 -30 -118 -30 -122 0 -5
11 -8 25 -8 19 0 26 7 31 28 3 15 7 31 8 36 1 5 21 9 44 10 38 1 44 -2 48 -24
10 -46 13 -50 39 -50 14 0 25 3 25 8 0 4 -14 59 -30 122 -21 82 -35 120 -51
133 -12 9 -25 17 -29 17 -4 0 -17 -8 -29 -17z m42 -62 c3 -16 9 -40 13 -55 6
-24 4 -26 -26 -26 -30 0 -32 2 -26 26 4 15 10 39 13 55 7 37 19 37 26 0z"/>
<path d="M1630 651 l-35 -6 -3 -132 -3 -133 26 0 c23 0 25 3 25 50 0 34 4 50
13 50 7 0 21 -22 31 -50 16 -44 21 -50 47 -50 16 0 29 2 29 5 0 3 -11 27 -24
53 l-24 47 24 28 c30 35 31 78 2 111 -26 29 -57 37 -108 27z m70 -61 c11 -20
5 -60 -8 -60 -4 0 -17 -3 -29 -6 -21 -6 -23 -3 -23 40 0 42 2 46 25 46 14 0
29 -8 35 -20z"/>
<path d="M1865 655 c-5 -2 -22 -6 -37 -9 l-28 -6 0 -130 0 -130 31 0 32 0 -5
50 c-4 35 -1 50 7 50 7 0 22 -22 33 -50 17 -42 25 -50 46 -50 32 0 32 7 5 63
l-22 44 21 21 c47 47 31 120 -29 141 -33 11 -37 12 -54 6z m49 -61 c11 -30 6
-53 -15 -64 -33 -18 -45 -7 -41 39 4 35 7 41 27 41 13 0 26 -7 29 -16z"/>
<path d="M2082 643 c-14 -12 -30 -52 -47 -123 -14 -58 -28 -113 -31 -122 -4
-14 1 -18 21 -18 26 0 29 4 39 50 5 23 9 25 50 22 41 -4 45 -6 51 -38 5 -28
10 -34 30 -34 14 0 25 3 25 8 0 4 -12 58 -27 120 -35 143 -62 176 -111 135z
m44 -60 c3 -16 10 -40 14 -55 9 -27 8 -28 -27 -28 -28 0 -34 3 -29 16 3 9 9
33 12 55 8 45 21 51 30 12z"/>
<path d="M810 514 l0 -135 27 3 c26 3 27 5 24 51 l-3 47 37 0 c66 0 102 61 74
123 -15 32 -49 47 -109 47 l-50 0 0 -136z m98 84 c27 -27 7 -78 -30 -78 -15 0
-18 8 -18 45 0 37 3 45 18 45 10 0 23 -5 30 -12z"/>
<path d="M1210 515 l0 -135 25 0 c24 0 25 3 25 59 l0 59 45 -6 c43 -4 45 -4
45 22 0 24 -3 26 -45 26 l-45 0 0 36 0 37 50 -5 c47 -5 50 -4 50 18 0 23 -3
24 -75 24 l-75 0 0 -135z"/>
<path d="M1410 630 c-17 -17 -20 -33 -20 -109 0 -112 10 -127 93 -134 55 -5
57 -5 57 18 0 21 -5 24 -47 27 -46 3 -48 4 -51 36 -3 32 -3 32 42 32 42 0 46
2 46 25 0 23 -2 24 -45 18 -43 -5 -45 -5 -45 19 0 35 23 51 65 46 31 -4 35 -1
35 19 0 21 -4 23 -55 23 -42 0 -60 -5 -75 -20z"/>
<path d="M2210 627 c0 -20 4 -23 30 -19 l30 4 0 -116 0 -116 25 0 25 0 0 115
0 115 30 0 c23 0 30 4 30 20 0 18 -7 20 -85 20 -82 0 -85 -1 -85 -23z"/>
<path d="M1020 514 c0 -23 3 -24 70 -24 66 0 70 1 70 23 0 22 -4 23 -70 24
-68 1 -70 0 -70 -23z"/>
<path d="M1024 291 c-2 -2 -4 -13 -4 -23 0 -16 9 -18 70 -18 66 0 70 1 70 23
0 21 -4 22 -66 22 -36 0 -67 -2 -70 -4z"/>
<path d="M1020 23 c0 -15 10 -18 70 -18 60 0 70 3 70 18 0 15 -10 17 -70 17
-60 0 -70 -2 -70 -17z"/>
</g>
</svg>
